<svg width="46" height="42" viewBox="0 0 46 42" fill="none" xmlns="http://www.w3.org/2000/svg">
<g id="books-stack-of-three 2" clip-path="url(#clip0_1_1632)">
<g id="Group">
<g id="Group_2">
<path id="Vector" d="M42.4144 14.9043C42.2297 13.6275 42.2037 11.4285 43.4932 10.6901C43.5163 10.6766 43.5334 10.657 43.5536 10.6402C44.6079 10.3301 45.3376 9.89492 44.7648 9.30931L29.2123 5L4.02922 8.2197C4.02922 8.2197 1.14544 8.59874 1.40305 12.7188C1.5429 14.9612 2.3077 16.0624 2.97654 16.6044L0.910042 17.1771C0.336476 17.7627 1.06597 18.1981 2.12042 18.5076C2.14046 18.5249 2.15736 18.5444 2.1808 18.5579C3.46955 19.2969 3.44475 21.4957 3.25937 22.7727C-1.37046 23.9817 0.291496 24.3756 0.291496 24.3756L1.30709 24.6016C0.592727 25.1952 -0.116734 26.3209 0.0161623 28.4559C0.273913 32.5752 2.6426 32.8595 2.6426 32.8595L19.1223 37.7852L43.9963 32.2448C43.9963 32.2448 45.6588 31.8502 41.0278 30.6412C40.8416 29.3662 40.8157 27.1676 42.1074 26.4267C42.1312 26.4136 42.1485 26.3936 42.1677 26.3771C43.2221 26.067 43.9511 25.6322 43.3782 25.0466L42.297 24.7464C43.0181 24.3465 44.1012 23.3015 44.2708 20.5871C44.3879 18.72 43.8583 17.6265 43.2452 16.9827L45.3821 16.5072C45.3823 16.5079 47.0448 16.1133 42.4144 14.9043ZM21.6087 14.8515L25.7916 14.061L39.9274 11.3896L42.0334 10.9913C41.3605 12.1239 41.3887 13.6739 41.5001 14.6701C41.5245 14.8955 41.5525 15.1013 41.5798 15.2577L39.2746 15.7848L21.4329 19.8664L21.6087 14.8515ZM3.64075 18.8604L5.74651 19.2587L19.3219 21.825L20.5079 22.0484L24.0645 22.7206L24.2399 27.7356L5.90244 23.5402L4.09464 23.1271C4.12122 22.9704 4.1493 22.7648 4.17479 22.5388C4.28547 21.5433 4.31423 19.993 3.64075 18.8604ZM2.82266 12.5205C2.79717 11.4246 3.00953 10.6321 3.43875 10.2292C3.7119 9.972 4.03426 9.91848 4.25534 9.91848C4.37216 9.91848 4.45626 9.9334 4.46198 9.9334L15.3127 13.1864L20.7263 14.8095L20.5487 19.8595L5.36145 15.944L4.55998 15.7376C4.53054 15.7299 4.4906 15.7246 4.4598 15.7234C4.39724 15.7193 2.89571 15.5922 2.82266 12.5205ZM19.1615 35.5974L3.17323 31.4753C3.14365 31.4674 3.10412 31.4622 3.07332 31.4608C3.00966 31.4569 1.50746 31.3299 1.43481 28.259C1.40891 27.1617 1.62237 26.3699 2.05077 25.9667C2.3246 25.7095 2.6471 25.656 2.86777 25.656C2.98486 25.656 3.06868 25.6704 3.07482 25.6704C3.07482 25.6704 3.0755 25.6704 3.07482 25.6704L19.338 30.5473L19.1615 35.5974ZM40.1121 30.4073C40.1373 30.6334 40.1654 30.8388 40.1926 30.9955L20.0453 35.6045L20.2214 30.5895L24.5288 29.7752L25.1649 29.9167L27.5491 29.2041L38.5394 27.1273L40.6463 26.7287C39.9726 27.8612 40.0006 29.4118 40.1121 30.4073ZM41.2219 23.5917C41.1852 23.5925 41.1485 23.597 41.1141 23.607L39.5945 23.9982L25.1262 27.7289L24.9492 22.679L29.6962 21.2552L41.1902 17.8081C41.1917 17.8075 41.7949 17.6843 42.2376 18.0983C42.6661 18.5011 42.8788 19.2937 42.8537 20.3896C42.7787 23.4602 41.2765 23.5878 41.2219 23.5917Z" fill="#5D5FEF"/>
</g>
</g>
</g>
<defs>
<clipPath id="clip0_1_1632">
<rect width="45.6726" height="42" fill="white"/>
</clipPath>
</defs>
</svg>
